HIERARCHY
ROOT Hips
{
    OFFSET   0.000000   0.000000   0.000000
    CHANNELS 6 Xposition Yposition Zposition Zrotation Xrotation Yrotation
    JOINT Chest
    {
        OFFSET   0.000000   8.007240   0.000000
        CHANNELS 3 Zrotation Xrotation Yrotation
        JOINT Chest2
        {
            OFFSET   0.000000  22.077100   0.000000
            CHANNELS 3 Zrotation Xrotation Yrotation
            JOINT Neck
            {
                OFFSET   0.000000  23.254800   0.000000
                CHANNELS 3 Zrotation Xrotation Yrotation
                JOINT Head
                {
                    OFFSET   0.000000  14.370000   1.956600
                    CHANNELS 3 Zrotation Xrotation Yrotation
                    End Site
                    {
                        OFFSET   0.000000  19.566000   0.000000
                    }
                }
            }
            JOINT LeftCollar
            {
                OFFSET   3.911900  19.017000  -0.467064
                CHANNELS 3 Zrotation Xrotation Yrotation
                JOINT LeftShoulder
                {
                    OFFSET  10.383700   0.000000   0.000000
                    CHANNELS 3 Zrotation Xrotation Yrotation
                    JOINT LeftElbow
                    {
                        OFFSET  26.662100   0.001476   0.000517
                        CHANNELS 3 Zrotation Xrotation Yrotation
                        JOINT LeftWrist
                        {
                            OFFSET  28.869000  -0.000025  -0.000106
                            CHANNELS 3 Zrotation Xrotation Yrotation
                            JOINT LeftFinger0
                            {
                                OFFSET   2.044660  -2.323460   3.252850
                                CHANNELS 3 Zrotation Xrotation Yrotation
                                JOINT LeftFinger01
                                {
                                    OFFSET   3.088130   0.000000   0.000000
                                    CHANNELS 3 Zrotation Xrotation Yrotation
                                    JOINT LeftFinger02
                                    {
                                        OFFSET   2.639460   0.000000   0.000000
                                        CHANNELS 3 Zrotation Xrotation Yrotation
                                        End Site
                                        {
                                            OFFSET   2.582190   0.000000   0.000000
                                        }
                                    }
                                }
                            }
                            JOINT LeftFinger1
                            {
                                OFFSET   8.364480   0.000000   3.252850
                                CHANNELS 3 Zrotation Xrotation Yrotation
                                JOINT LeftFinger11
                                {
                                    OFFSET   4.646930   0.000000   0.000000
                                    CHANNELS 3 Zrotation Xrotation Yrotation
                                    JOINT LeftFinger12
                                    {
                                        OFFSET   2.323460   0.000000   0.000000
                                        CHANNELS 3 Zrotation Xrotation Yrotation
                                        End Site
                                        {
                                            OFFSET   2.273050   0.000000   0.000000
                                        }
                                    }
                                }
                            }
                            JOINT LeftFinger2
                            {
                                OFFSET   8.364490   0.000015   1.078090
                                CHANNELS 3 Zrotation Xrotation Yrotation
                                JOINT LeftFinger21
                                {
                                    OFFSET   5.111620   0.000000   0.000000
                                    CHANNELS 3 Zrotation Xrotation Yrotation
                                    JOINT LeftFinger22
                                    {
                                        OFFSET   2.788160   0.000016   0.000000
                                        CHANNELS 3 Zrotation Xrotation Yrotation
                                        End Site
                                        {
                                            OFFSET   2.727660   0.000000   0.000000
                                        }
                                    }
                                }
                            }
                            JOINT LeftFinger3
                            {
                                OFFSET   7.899780   0.000017  -1.078090
                                CHANNELS 3 Zrotation Xrotation Yrotation
                                JOINT LeftFinger31
                                {
                                    OFFSET   4.646930   0.000000   0.000000
                                    CHANNELS 3 Zrotation Xrotation Yrotation
                                    JOINT LeftFinger32
                                    {
                                        OFFSET   2.323470   0.000000   0.000000
                                        CHANNELS 3 Zrotation Xrotation Yrotation
                                        End Site
                                        {
                                            OFFSET   2.273050   0.000000   0.000000
                                        }
                                    }
                                }
                            }
                            JOINT LeftFinger4
                            {
                                OFFSET   7.435090   0.000000  -3.252850
                                CHANNELS 3 Zrotation Xrotation Yrotation
                                JOINT LeftFinger41
                                {
                                    OFFSET   3.717550   0.000000   0.000000
                                    CHANNELS 3 Zrotation Xrotation Yrotation
                                    JOINT LeftFinger42
                                    {
                                        OFFSET   1.858770   0.000000   0.000000
                                        CHANNELS 3 Zrotation Xrotation Yrotation
                                        End Site
                                        {
                                            OFFSET   1.818440   0.000000   0.000000
                                        }
                                    }
                                }
                            }
                        }
                    }
                }
            }
            JOINT RightCollar
            {
                OFFSET  -3.911900  19.017000  -0.467063
                CHANNELS 3 Zrotation Xrotation Yrotation
                JOINT RightShoulder
                {
                    OFFSET -10.383700   0.000019   0.000000
                    CHANNELS 3 Zrotation Xrotation Yrotation
                    JOINT RightElbow
                    {
                        OFFSET -26.662100   0.001175   0.000102
                        CHANNELS 3 Zrotation Xrotation Yrotation
                        JOINT RightWrist
                        {
                            OFFSET -28.869000   0.000016  -0.000079
                            CHANNELS 3 Zrotation Xrotation Yrotation
                            JOINT RightFinger0
                            {
                                OFFSET  -2.044660  -2.323490   3.252850
                                CHANNELS 3 Zrotation Xrotation Yrotation
                                JOINT RightFinger01
                                {
                                    OFFSET  -3.088140   0.000000   0.000000
                                    CHANNELS 3 Zrotation Xrotation Yrotation
                                    JOINT RightFinger02
                                    {
                                        OFFSET  -2.639460   0.000000   0.000000
                                        CHANNELS 3 Zrotation Xrotation Yrotation
                                        End Site
                                        {
                                            OFFSET  -2.582190   0.000000   0.000000
                                        }
                                    }
                                }
                            }
                            JOINT RightFinger1
                            {
                                OFFSET  -8.364480   0.000000   3.252850
                                CHANNELS 3 Zrotation Xrotation Yrotation
                                JOINT RightFinger11
                                {
                                    OFFSET  -4.646930   0.000000   0.000000
                                    CHANNELS 3 Zrotation Xrotation Yrotation
                                    JOINT RightFinger12
                                    {
                                        OFFSET  -2.323470   0.000000   0.000000
                                        CHANNELS 3 Zrotation Xrotation Yrotation
                                        End Site
                                        {
                                            OFFSET  -2.273050   0.000000   0.000000
                                        }
                                    }
                                }
                            }
                            JOINT RightFinger2
                            {
                                OFFSET  -8.364480   0.000000   1.078090
                                CHANNELS 3 Zrotation Xrotation Yrotation
                                JOINT RightFinger21
                                {
                                    OFFSET  -5.111620   0.000000   0.000000
                                    CHANNELS 3 Zrotation Xrotation Yrotation
                                    JOINT RightFinger22
                                    {
                                        OFFSET  -2.788160   0.000000   0.000000
                                        CHANNELS 3 Zrotation Xrotation Yrotation
                                        End Site
                                        {
                                            OFFSET  -2.727660   0.000000   0.000000
                                        }
                                    }
                                }
                            }
                            JOINT RightFinger3
                            {
                                OFFSET  -7.899780   0.000000  -1.078090
                                CHANNELS 3 Zrotation Xrotation Yrotation
                                JOINT RightFinger31
                                {
                                    OFFSET  -4.646930   0.000000   0.000000
                                    CHANNELS 3 Zrotation Xrotation Yrotation
                                    JOINT RightFinger32
                                    {
                                        OFFSET  -2.323470   0.000000   0.000000
                                        CHANNELS 3 Zrotation Xrotation Yrotation
                                        End Site
                                        {
                                            OFFSET  -2.273050   0.000000   0.000000
                                        }
                                    }
                                }
                            }
                            JOINT RightFinger4
                            {
                                OFFSET  -7.435090   0.000000  -3.252850
                                CHANNELS 3 Zrotation Xrotation Yrotation
                                JOINT RightFinger41
                                {
                                    OFFSET  -3.717550   0.000000   0.000000
                                    CHANNELS 3 Zrotation Xrotation Yrotation
                                    JOINT RightFinger42
                                    {
                                        OFFSET  -1.858770   0.000000   0.000000
                                        CHANNELS 3 Zrotation Xrotation Yrotation
                                        End Site
                                        {
                                            OFFSET  -1.818440   0.000000   0.000000
                                        }
                                    }
                                }
                            }
                        }
                    }
                }
            }
        }
    }
    JOINT LeftHip
    {
        OFFSET   9.783040   0.000000   0.000000
        CHANNELS 3 Zrotation Xrotation Yrotation
        JOINT LeftKnee
        {
            OFFSET   0.000032 -41.789100  -0.002222
            CHANNELS 3 Zrotation Xrotation Yrotation
            JOINT LeftAnkle
            {
                OFFSET   0.000087 -41.133200  -0.000135
                CHANNELS 3 Zrotation Xrotation Yrotation
                JOINT LeftToe
                {
                    OFFSET   0.000000  -6.358960  14.674500
                    CHANNELS 3 Zrotation Xrotation Yrotation
                    End Site
                    {
                        OFFSET   0.000000   0.000000   3.913200
                    }
                }
            }
        }
    }
    JOINT RightHip
    {
        OFFSET  -9.783040   0.000000   0.000000
        CHANNELS 3 Zrotation Xrotation Yrotation
        JOINT RightKnee
        {
            OFFSET   0.000047 -41.789100  -0.000896
            CHANNELS 3 Zrotation Xrotation Yrotation
            JOINT RightAnkle
            {
                OFFSET  -0.000117 -41.133300  -0.000248
                CHANNELS 3 Zrotation Xrotation Yrotation
                JOINT RightToe
                {
                    OFFSET   0.000000  -6.358970  14.674500
                    CHANNELS 3 Zrotation Xrotation Yrotation
                    End Site
                    {
                        OFFSET   0.000000   0.000000   3.913200
                    }
                }
            }
        }
    }
}
MOTION
Frames: 5
Frame Time:   0.016667
 -1.925690  89.407800  -3.218200  -0.226370 -19.873600   5.161360   2.249800  16.438800  -0.408169   4.953710  32.845600  -1.626780   0.680462  -1.715580   0.018679   1.121270  -3.476960   6.836030  -4.451480 -11.004500  -0.857157  -5.615380  48.198200 -101.804000   5.728090  -3.446490 -86.635200 -30.542300 -16.095100 -10.738700  38.756900  31.077300 -73.107900  17.422700   0.009680  -0.001542  13.711300   0.003471  -0.002735 -32.473400   2.056600  -3.224650 -26.613900   0.002183   0.000367 -18.629700   0.005903   0.002075 -34.005700  -3.597780   5.274810 -51.399400  -0.000853  -0.007006 -34.202400  -0.002867  -0.001295 -40.126600  -5.620230   6.623770 -54.324800   0.001588  -0.008351 -37.403200   0.001889  -0.004926 -44.038000 -12.188000  12.317700 -68.037600   0.004300  -0.010212 -45.313000   0.006630  -0.002364  -6.782620 -15.226800  10.089900  34.181700  63.596700  68.147500 -24.759500 -20.211900  94.801900  10.330600   7.225680  12.891800 -52.553900  36.831600  67.910600  16.569400   0.001362  -0.000290   3.284690  -0.002798   0.000115  39.901800   4.001030   4.772370  32.783700   0.004223  -0.003335  23.026000   0.001607   0.001905  34.669900   0.738380   1.063670  52.018500  -0.005294   0.000258  34.644300   0.002576  -0.006524  38.524600  -1.785570  -2.253720  54.332200   0.001069  -0.000806  36.879700  -0.000381  -0.005660  48.210200  -3.831890  -3.420200  72.486400  -0.000164  -0.001289  48.276000  -0.000872  -0.001759   2.835940  19.099600   4.017870   3.599180   3.057600   3.547160  -2.371170  -1.523320   0.158231  -0.000000   0.000000   0.000000   3.456480  16.813200  -4.823330   1.381230   6.780300 -10.568600  -2.160600  -4.471010  -4.611030  -0.000000   0.000000   0.000000
 -1.932040  89.408900  -3.149700  -0.281199 -19.738600   5.058290   2.209540  16.289900  -0.403135   4.860000  32.549000  -1.597030   0.646539  -1.773330   0.018792   1.065780  -3.594680   6.962490  -4.463800 -10.872500  -0.948087  -5.298210  47.648000 -101.512000   5.667680  -3.394520 -86.892000 -30.162000 -17.277000 -10.793900  39.478900  31.652300 -73.323900  15.938500   0.018522  -0.002260  12.969200   0.003580  -0.002846 -32.560700   2.357460  -3.684920 -26.701600   0.002174   0.000398 -18.691100   0.005904   0.002081 -33.635200  -3.528960   5.282580 -50.695700  -0.000852  -0.007106 -33.763300  -0.002860  -0.001412 -39.133200  -5.549960   6.773210 -54.269000   0.001586  -0.008509 -37.104500   0.001986  -0.004951 -43.601700 -12.433400  12.737600 -67.491800   0.004399  -0.010312 -44.949500   0.006715  -0.002448  -6.699170 -15.151600  10.153600  33.841500  63.779800  68.671100 -24.820800 -20.369600  94.426100   9.693920   6.890360  13.039200 -52.556500  37.323000  68.862900  17.166800   0.001497  -0.000436   3.583360  -0.002798   0.000098  40.216300   4.204740   4.959330  33.053400   0.004264  -0.003341  23.270800   0.001614   0.001957  34.628900   0.936116   1.351600  51.959900  -0.005333   0.000522  34.605300   0.002681  -0.006710  38.099700  -1.526570  -1.962020  54.417700   0.001043  -0.002634  36.792300  -0.000420  -0.005669  48.195600  -3.824700  -3.417980  72.463900  -0.000127  -0.004630  48.261000  -0.000816  -0.001849   2.887980  19.113100   3.989240   3.529240   2.896060   3.642900  -2.361290  -1.502300   0.183148  -0.000000   0.000000   0.000000   3.456750  16.768500  -4.782820   1.403960   6.663200 -10.576600  -2.164130  -4.446100  -4.537280  -0.000000   0.000000   0.000000
 -1.939840  89.409900  -3.083180  -0.331583 -19.603700   4.959410   2.170960  16.140100  -0.412140   4.774750  32.249900  -1.598130   0.614705  -1.843050   0.018910   1.013830  -3.736030   7.101630  -4.510270 -10.757300  -1.025600  -5.296610  47.151800 -100.888000   5.617810  -3.099990 -87.133300 -29.722200 -18.410800 -10.840200  39.858400  31.968500 -73.344800  13.826900   0.021865  -0.002472  11.913400   0.003684  -0.002958 -32.457100   2.796380  -4.397080 -26.637100   0.002168   0.000415 -18.646000   0.005909   0.002080 -33.458100  -3.166810   4.800070 -50.372400  -0.000849  -0.007202 -33.550000  -0.002855  -0.001471 -38.263500  -5.477760   6.891710 -54.412400   0.001575  -0.008675 -36.936600   0.002202  -0.004965 -43.557400 -12.489500  12.804400 -67.453600   0.004497  -0.010459 -44.924100   0.006806  -0.002525  -6.587170 -15.142000  10.271700  34.052100  63.683500  68.696300 -24.115800 -20.304400  94.215400   9.115890   6.801650  13.188000 -52.737800  37.991200  70.167000  17.717900   0.001608  -0.000468   3.858930  -0.002799   0.000086  40.483600   4.347250   5.076560  33.276700   0.004309  -0.003356  23.474900   0.001614   0.002018  34.467800   1.242930   1.806660  51.727100  -0.005375   0.000779  34.450200   0.002802  -0.006882  37.520200  -1.091010  -1.427880  54.393000   0.000996  -0.005921  36.641800  -0.000465  -0.005682  47.976000  -3.734320  -3.376850  72.128300  -0.000051  -0.012585  48.037500  -0.000770  -0.002857   2.939280  19.122000   3.946550   3.458240   2.742660   3.738070  -2.354170  -1.485460   0.218064  -0.000000   0.000000  -0.000000   3.458380  16.715600  -4.758370   1.422280   6.565080 -10.577700  -2.169020  -4.432070  -4.453410  -0.000000   0.000000   0.000000
 -1.944810  89.411100  -3.020000  -0.380394 -19.462900   4.858940   2.132700  15.983800  -0.433507   4.689560  31.937300  -1.616210   0.586866  -1.922940   0.019022   0.968337  -3.897840   7.255780  -4.575490 -10.641800  -1.066410  -5.834720  46.757800 -99.804000   5.355340  -2.693860 -87.325900 -29.330500 -19.335700 -10.877700  40.341700  32.106600 -73.316700  11.549800   0.022738  -0.002503  10.774900   0.003783  -0.003069 -32.342200   3.236790  -5.112560 -26.572700   0.002165   0.000434 -18.600900   0.005912   0.002078 -33.339400  -2.675450   4.050280 -50.141300  -0.000845  -0.007299 -33.394200  -0.002850  -0.001650 -37.445300  -5.408600   7.005390 -54.555900   0.001566  -0.008846 -36.751800   0.003108  -0.005012 -43.534400 -12.497000  12.824600 -67.415500   0.004596  -0.010551 -44.898700   0.006899  -0.002599  -6.455430 -15.135000  10.410100  34.428400  63.388600  68.504100 -23.538200 -20.010100  94.096600   8.761790   6.784180  13.382300 -52.918700  38.666400  71.625900  18.266300   0.001717  -0.000488   4.133140  -0.002800   0.000069  40.606700   4.500780   5.229690  33.391600   0.004352  -0.003366  23.580500   0.001614   0.002077  34.097400   1.581240   2.335480  51.190600  -0.005408   0.001037  34.092900   0.002930  -0.007045  36.766000  -0.586571  -0.780221  54.220300   0.000939  -0.008185  36.297300  -0.000510  -0.005699  47.291500  -3.479830  -3.222070  71.081800   0.000000  -0.018266  47.340500  -0.000707  -0.004503   2.987640  19.126700   3.902940   3.388800   2.598780   3.832500  -2.347110  -1.473180   0.256636  -0.000000   0.000000   0.000000   3.459540  16.646900  -4.740390   1.440340   6.487400 -10.576500  -2.174930  -4.427710  -4.379500  -0.000000   0.000000  -0.000000
 -1.944580  89.412000  -2.964140  -0.427973 -19.305400   4.755900   2.093690  15.812400  -0.466188   4.608090  31.594200  -1.662180   0.564674  -2.013390   0.019118   0.933722  -4.081300   7.425390  -4.626350 -10.501800  -1.050730  -6.806860  46.467700 -98.367300   5.136580  -1.939880 -87.294300 -29.064900 -19.821500 -10.901100  40.381800  31.794600 -72.972600   9.543350   0.015600  -0.001810   9.771680   0.003831  -0.003174 -32.304300   3.652700  -5.753970 -26.585900   0.002172   0.000469 -18.610100   0.005912   0.002077 -33.135200  -2.259720   3.460140 -49.797400  -0.000840  -0.007348 -33.165200  -0.002835  -0.003723 -36.558200  -5.341720   7.144560 -54.426800   0.001574  -0.008931 -36.421500   0.005437  -0.005079 -43.433500 -12.464400  12.840600 -67.253900   0.004647  -0.010424 -44.791000   0.006945  -0.002675  -6.285330 -15.178600  10.567500  35.863100  62.650300  67.023400 -22.262300 -19.354600  94.565500   8.612620   7.010080  13.666100 -52.882900  39.261700  73.194200  18.852600   0.001844  -0.000563   4.426310  -0.002806   0.000028  40.454000   4.793180   5.599960  33.293600   0.004387  -0.003358  23.473700   0.001614   0.002119  33.387000   1.994810   2.986060  50.156800  -0.005423   0.001292  33.404400   0.003060  -0.007202  35.729300   0.047239   0.091543  53.389900   0.000903  -0.006126  35.561300  -0.000549  -0.005724  45.959800  -3.001570  -2.902340  69.049700   0.000000  -0.018150  45.987100  -0.000592  -0.006438   3.029230  19.105300   3.866720   3.323090   2.469400   3.924000  -2.337600  -1.466430   0.292992   0.000000   0.000000   0.000000   3.455480  16.548100  -4.728510   1.454820   6.437220 -10.530500  -2.180210  -4.432960  -4.340310  -0.000000   0.000000   0.000000
